<svg width="58" height="21" viewBox="0 0 58 21" fill="none" xmlns="http://www.w3.org/2000/svg">
<path d="M6.888 20.132C9.464 20.132 11.564 18.732 12.6 16.688V19.852H14.252V13.02C14.252 9.044 11.116 5.964 7.112 5.964C3.052 5.964 0 9.156 0 13.02C0 16.94 2.968 20.132 6.888 20.132ZM7.112 18.48C4.116 18.48 1.736 16.016 1.736 13.048C1.736 10.08 4.116 7.616 7.112 7.616C10.136 7.616 12.516 10.08 12.516 13.048C12.516 16.016 10.136 18.48 7.112 18.48Z" fill="#DAC5A7"/>
<path d="M21.4621 19.852V11.564C21.4621 9.24 22.7501 7.756 24.8221 7.756C25.6061 7.756 26.3621 7.952 27.0341 8.344V6.58C26.3341 6.244 25.5221 6.076 24.6821 6.076C21.5461 6.076 19.7261 8.316 19.7261 11.48V19.852H21.4621Z" fill="#DAC5A7"/>
<path d="M31.3689 2.996C32.0689 2.996 32.6009 2.436 32.6009 1.708C32.6009 0.980001 32.0689 0.420001 31.3689 0.420001C30.6689 0.420001 30.1089 0.980001 30.1089 1.708C30.1089 2.436 30.6689 2.996 31.3689 2.996ZM30.5009 6.272V19.852H32.2369V6.272H30.5009Z" fill="#DAC5A7"/>
<path d="M40.3737 19.852V13.776H42.3617C42.5017 14.196 42.7257 14.616 43.0897 14.98L47.9337 19.852H50.2017L44.2937 13.888C44.0137 13.608 43.8457 13.328 43.8457 13.048C43.8457 12.74 44.0137 12.488 44.2937 12.208L50.2297 6.272H48.0457L43.1457 11.172C42.8097 11.508 42.5577 11.872 42.4177 12.236H40.3737V0H38.6377V19.852H40.3737Z" fill="#DAC5A7"/>
<path d="M55.8175 20.076C56.5175 20.076 57.0775 19.516 57.0775 18.788C57.0775 18.088 56.5175 17.556 55.8175 17.556C55.1175 17.556 54.5575 18.088 54.5575 18.788C54.5575 19.516 55.1175 20.076 55.8175 20.076Z" fill="#DAC5A7"/>
</svg>
