<svg width="18" height="15" viewBox="0 0 18 15" fill="none" xmlns="http://www.w3.org/2000/svg">
<path d="M17.625 7.30685C17.625 7.45603 17.5657 7.59911 17.4602 7.70459C17.3548 7.81008 17.2117 7.86935 17.0625 7.86935H1.92188L7.70625 13.6631C7.75796 13.7148 7.79897 13.7762 7.82696 13.8438C7.85494 13.9113 7.86935 13.9837 7.86935 14.0568C7.86935 14.13 7.85494 14.2024 7.82696 14.2699C7.79897 14.3375 7.75796 14.3989 7.70625 14.4506C7.65454 14.5023 7.59316 14.5433 7.5256 14.5713C7.45804 14.5993 7.38563 14.6137 7.3125 14.6137C7.23937 14.6137 7.16696 14.5993 7.0994 14.5713C7.03184 14.5433 6.97046 14.5023 6.91875 14.4506L0.16875 7.7006C0.115426 7.64981 0.0729725 7.58872 0.043965 7.52104C0.0149574 7.45336 0 7.38049 0 7.30685C0 7.23321 0.0149574 7.16034 0.043965 7.09265C0.0729725 7.02497 0.115426 6.96388 0.16875 6.9131L6.91875 0.163097C7.02318 0.0586676 7.16481 -1.10034e-09 7.3125 0C7.46019 1.10034e-09 7.60182 0.0586676 7.70625 0.163097C7.81068 0.267526 7.86935 0.409162 7.86935 0.556847C7.86935 0.704531 7.81068 0.846168 7.70625 0.950597L1.92188 6.74435H17.0625C17.2117 6.74435 17.3548 6.80361 17.4602 6.9091C17.5657 7.01459 17.625 7.15766 17.625 7.30685Z" fill="#DAC5A7"/>
</svg>
