<svg width="18" height="15" viewBox="0 0 18 15" fill="none" xmlns="http://www.w3.org/2000/svg">
<path d="M17.4562 7.7006L10.7062 14.4506C10.6545 14.5023 10.5932 14.5433 10.5256 14.5713C10.458 14.5993 10.3856 14.6137 10.3125 14.6137C10.2394 14.6137 10.167 14.5993 10.0994 14.5713C10.0318 14.5433 9.97046 14.5023 9.91875 14.4506C9.86704 14.3989 9.82603 14.3375 9.79804 14.2699C9.77006 14.2024 9.75565 14.13 9.75565 14.0568C9.75565 13.9837 9.77006 13.9113 9.79804 13.8438C9.82603 13.7762 9.86704 13.7148 9.91875 13.6631L15.7031 7.86935H0.5625C0.413316 7.86935 0.270242 7.81008 0.164752 7.70459C0.0592632 7.59911 0 7.45603 0 7.30685C0 7.15766 0.0592632 7.01459 0.164752 6.9091C0.270242 6.80361 0.413316 6.74435 0.5625 6.74435H15.7031L9.91875 0.950597C9.81432 0.846168 9.75565 0.704531 9.75565 0.556847C9.75565 0.409162 9.81432 0.267526 9.91875 0.163097C10.0232 0.0586676 10.1648 1.10034e-09 10.3125 0C10.4602 -1.10034e-09 10.6018 0.0586676 10.7062 0.163097L17.4562 6.9131C17.5096 6.96388 17.552 7.02497 17.581 7.09265C17.61 7.16034 17.625 7.23321 17.625 7.30685C17.625 7.38049 17.61 7.45336 17.581 7.52104C17.552 7.58872 17.5096 7.64981 17.4562 7.7006Z" fill="#DAC5A7"/>
</svg>
