<svg width="14" height="14" viewBox="0 0 14 14" fill="none" xmlns="http://www.w3.org/2000/svg">
<path d="M13.1193 2.80685V12.5568C13.1193 12.706 13.0601 12.8491 12.9546 12.9546C12.8491 13.0601 12.706 13.1193 12.5568 13.1193H2.80685C2.65766 13.1193 2.51459 13.0601 2.4091 12.9546C2.30361 12.8491 2.24435 12.706 2.24435 12.5568C2.24435 12.4077 2.30361 12.2646 2.4091 12.1591C2.51459 12.0536 2.65766 11.9943 2.80685 11.9943H11.1975L0.163097 0.950596C0.0586676 0.846167 -1.10034e-09 0.704531 0 0.556847C1.10034e-09 0.409162 0.0586676 0.267526 0.163097 0.163097C0.267526 0.0586676 0.409162 1.10034e-09 0.556847 0C0.704531 -1.10034e-09 0.846167 0.0586676 0.950596 0.163097L11.9943 11.1975V2.80685C11.9943 2.65766 12.0536 2.51459 12.1591 2.4091C12.2646 2.30361 12.4077 2.24435 12.5568 2.24435C12.706 2.24435 12.8491 2.30361 12.9546 2.4091C13.0601 2.51459 13.1193 2.65766 13.1193 2.80685Z" fill="#DAC5A7"/>
</svg>
