<svg width="15" height="18" viewBox="0 0 15 18" fill="none" xmlns="http://www.w3.org/2000/svg">
<path d="M14.4506 7.70625C14.3998 7.75957 14.3387 7.80203 14.271 7.83104C14.2034 7.86004 14.1305 7.875 14.0568 7.875C13.9832 7.875 13.9103 7.86004 13.8427 7.83104C13.775 7.80203 13.7139 7.75957 13.6631 7.70625L7.86935 1.92188V17.0625C7.86935 17.2117 7.81008 17.3548 7.70459 17.4602C7.59911 17.5657 7.45603 17.625 7.30685 17.625C7.15766 17.625 7.01459 17.5657 6.9091 17.4602C6.80361 17.3548 6.74435 17.2117 6.74435 17.0625V1.92188L0.950597 7.70625C0.846168 7.81068 0.704531 7.86935 0.556847 7.86935C0.409162 7.86935 0.267526 7.81068 0.163097 7.70625C0.0586676 7.60182 1.10034e-09 7.46019 0 7.3125C-1.10034e-09 7.16481 0.0586676 7.02318 0.163097 6.91875L6.9131 0.16875C6.96388 0.115426 7.02497 0.0729725 7.09265 0.043965C7.16034 0.0149574 7.23321 0 7.30685 0C7.38049 0 7.45336 0.0149574 7.52104 0.043965C7.58872 0.0729725 7.64981 0.115426 7.7006 0.16875L14.4506 6.91875C14.5039 6.96954 14.5464 7.03062 14.5754 7.09831C14.6044 7.16599 14.6193 7.23886 14.6193 7.3125C14.6193 7.38614 14.6044 7.45901 14.5754 7.52669C14.5464 7.59438 14.5039 7.65546 14.4506 7.70625Z" fill="#DAC5A7"/>
</svg>
