<svg width="15" height="18" viewBox="0 0 15 18" fill="none" xmlns="http://www.w3.org/2000/svg">
<path d="M14.4506 10.7062L7.7006 17.4562C7.64981 17.5096 7.58872 17.552 7.52104 17.581C7.45336 17.61 7.38049 17.625 7.30685 17.625C7.23321 17.625 7.16034 17.61 7.09265 17.581C7.02497 17.552 6.96388 17.5096 6.9131 17.4562L0.163097 10.7062C0.0586676 10.6018 -1.10034e-09 10.4602 0 10.3125C1.10034e-09 10.1648 0.0586676 10.0232 0.163097 9.91875C0.267526 9.81432 0.409162 9.75565 0.556847 9.75565C0.704531 9.75565 0.846168 9.81432 0.950597 9.91875L6.74435 15.7031V0.5625C6.74435 0.413316 6.80361 0.270242 6.9091 0.164752C7.01459 0.0592632 7.15766 0 7.30685 0C7.45603 0 7.59911 0.0592632 7.70459 0.164752C7.81008 0.270242 7.86935 0.413316 7.86935 0.5625V15.7031L13.6631 9.91875C13.7675 9.81432 13.9092 9.75565 14.0568 9.75565C14.2045 9.75565 14.3462 9.81432 14.4506 9.91875C14.555 10.0232 14.6137 10.1648 14.6137 10.3125C14.6137 10.4602 14.555 10.6018 14.4506 10.7062Z" fill="#DAC5A7"/>
</svg>
