<svg width="14" height="14" viewBox="0 0 14 14" fill="none" xmlns="http://www.w3.org/2000/svg">
<path d="M12.9562 12.9562C12.9055 13.0096 12.8444 13.052 12.7767 13.081C12.709 13.11 12.6361 13.125 12.5625 13.125C12.4889 13.125 12.416 13.11 12.3483 13.081C12.2806 13.052 12.2195 13.0096 12.1688 12.9562L1.125 1.92188V10.3125C1.125 10.4617 1.06574 10.6048 0.960247 10.7102C0.854758 10.8157 0.711684 10.875 0.5625 10.875C0.413316 10.875 0.270242 10.8157 0.164752 10.7102C0.0592632 10.6048 0 10.4617 0 10.3125V0.5625C0 0.413316 0.0592632 0.270242 0.164752 0.164752C0.270242 0.0592632 0.413316 0 0.5625 0H10.3125C10.4617 0 10.6048 0.0592632 10.7102 0.164752C10.8157 0.270242 10.875 0.413316 10.875 0.5625C10.875 0.711684 10.8157 0.854758 10.7102 0.960247C10.6048 1.06574 10.4617 1.125 10.3125 1.125H1.92188L12.9562 12.1688C13.0096 12.2195 13.052 12.2806 13.081 12.3483C13.11 12.416 13.125 12.4889 13.125 12.5625C13.125 12.6361 13.11 12.709 13.081 12.7767C13.052 12.8444 13.0096 12.9055 12.9562 12.9562Z" fill="#DAC5A7"/>
</svg>
