<svg width="14" height="14" viewBox="0 0 14 14" fill="none" xmlns="http://www.w3.org/2000/svg">
<path d="M12.9562 0.950596L1.92188 11.9943H10.3125C10.4617 11.9943 10.6048 12.0536 10.7102 12.1591C10.8157 12.2646 10.875 12.4077 10.875 12.5568C10.875 12.706 10.8157 12.8491 10.7102 12.9546C10.6048 13.0601 10.4617 13.1193 10.3125 13.1193H0.5625C0.413316 13.1193 0.270242 13.0601 0.164752 12.9546C0.0592632 12.8491 0 12.706 0 12.5568V2.80685C0 2.65766 0.0592632 2.51459 0.164752 2.4091C0.270242 2.30361 0.413316 2.24435 0.5625 2.24435C0.711684 2.24435 0.854758 2.30361 0.960247 2.4091C1.06574 2.51459 1.125 2.65766 1.125 2.80685V11.1975L12.1688 0.163097C12.2732 0.0586676 12.4148 -2.91122e-09 12.5625 0C12.7102 2.91122e-09 12.8518 0.0586676 12.9562 0.163097C13.0607 0.267526 13.1193 0.409162 13.1193 0.556847C13.1193 0.704531 13.0607 0.846167 12.9562 0.950596Z" fill="#DAC5A7"/>
</svg>
