<svg width="14" height="14" viewBox="0 0 14 14" fill="none" xmlns="http://www.w3.org/2000/svg">
<path d="M13.1193 0.5625V10.3125C13.1193 10.4617 13.0601 10.6048 12.9546 10.7102C12.8491 10.8157 12.706 10.875 12.5568 10.875C12.4077 10.875 12.2646 10.8157 12.1591 10.7102C12.0536 10.6048 11.9943 10.4617 11.9943 10.3125V1.92188L0.950596 12.9562C0.846167 13.0607 0.704531 13.1193 0.556847 13.1193C0.409162 13.1193 0.267526 13.0607 0.163097 12.9562C0.0586676 12.8518 1.10034e-09 12.7102 0 12.5625C-1.10034e-09 12.4148 0.0586676 12.2732 0.163097 12.1688L11.1975 1.125H2.80685C2.65766 1.125 2.51459 1.06574 2.4091 0.960247C2.30361 0.854758 2.24435 0.711684 2.24435 0.5625C2.24435 0.413316 2.30361 0.270242 2.4091 0.164752C2.51459 0.0592632 2.65766 0 2.80685 0H12.5568C12.706 0 12.8491 0.0592632 12.9546 0.164752C13.0601 0.270242 13.1193 0.413316 13.1193 0.5625Z" fill="#DAC5A7"/>
</svg>
