<svg width="17" height="12" viewBox="0 0 17 12" fill="none" xmlns="http://www.w3.org/2000/svg">
<path d="M5.80685 11.6193C5.73321 11.6193 5.66034 11.6044 5.59265 11.5754C5.52497 11.5464 5.46388 11.5039 5.4131 11.4506L0.163097 6.2006C0.111389 6.14889 0.0703716 6.0875 0.0423875 6.01994C0.0144033 5.95238 0 5.87997 0 5.80685C0 5.73372 0.0144033 5.66131 0.0423875 5.59375C0.0703716 5.52619 0.111389 5.46481 0.163097 5.4131C0.214805 5.36139 0.276191 5.32037 0.34375 5.29239C0.41131 5.2644 0.48372 5.25 0.556847 5.25C0.629973 5.25 0.702383 5.2644 0.769943 5.29239C0.837502 5.32037 0.898889 5.36139 0.950597 5.4131L5.80685 10.26L15.9131 0.163097C16.0175 0.0586679 16.1592 0 16.3068 0C16.4545 0 16.5962 0.0586679 16.7006 0.163097C16.805 0.267526 16.8637 0.409162 16.8637 0.556847C16.8637 0.704531 16.805 0.846167 16.7006 0.950596L6.2006 11.4506C6.14981 11.5039 6.08872 11.5464 6.02104 11.5754C5.95336 11.6044 5.88049 11.6193 5.80685 11.6193Z" fill="#DAC5A7"/>
</svg>
