<svg width="20" height="15" viewBox="0 0 20 15" fill="none" xmlns="http://www.w3.org/2000/svg">
<path d="M18.5625 0H0.5625C0.413316 0 0.270242 0.0592632 0.164752 0.164752C0.0592632 0.270242 0 0.413316 0 0.5625V13.3125C0 13.6606 0.138281 13.9944 0.384422 14.2406C0.630564 14.4867 0.964403 14.625 1.3125 14.625H17.8125C18.1606 14.625 18.4944 14.4867 18.7406 14.2406C18.9867 13.9944 19.125 13.6606 19.125 13.3125V0.5625C19.125 0.413316 19.0657 0.270242 18.9602 0.164752C18.8548 0.0592632 18.7117 0 18.5625 0ZM17.1188 1.125L9.5625 8.05312L2.00625 1.125H17.1188ZM17.8125 13.5H1.3125C1.26277 13.5 1.21508 13.4802 1.17992 13.4451C1.14475 13.4099 1.125 13.3622 1.125 13.3125V1.8375L9.17813 9.225C9.28335 9.32052 9.42038 9.37344 9.5625 9.37344C9.70462 9.37344 9.84165 9.32052 9.94688 9.225L18 1.8375V13.3125C18 13.3622 17.9802 13.4099 17.9451 13.4451C17.9099 13.4802 17.8622 13.5 17.8125 13.5Z" fill="#DAC5A7"/>
</svg>
