<svg width="20" height="20" viewBox="0 0 20 20" fill="none" xmlns="http://www.w3.org/2000/svg">
<path d="M10.875 14.0625C10.875 14.2117 10.8157 14.3548 10.7103 14.4602C10.6048 14.5657 10.4617 14.625 10.3125 14.625C9.96441 14.625 9.63057 14.4867 9.38443 14.2406C9.13828 13.9944 9 13.6606 9 13.3125V9.5625C9 9.51277 8.98025 9.46508 8.94509 9.42992C8.90992 9.39475 8.86223 9.375 8.8125 9.375C8.66332 9.375 8.52025 9.31574 8.41476 9.21025C8.30927 9.10476 8.25 8.96168 8.25 8.8125C8.25 8.66332 8.30927 8.52024 8.41476 8.41475C8.52025 8.30926 8.66332 8.25 8.8125 8.25C9.1606 8.25 9.49444 8.38828 9.74058 8.63442C9.98672 8.88056 10.125 9.2144 10.125 9.5625V13.3125C10.125 13.3622 10.1448 13.4099 10.1799 13.4451C10.2151 13.4802 10.2628 13.5 10.3125 13.5C10.4617 13.5 10.6048 13.5593 10.7103 13.6648C10.8157 13.7702 10.875 13.9133 10.875 14.0625ZM9.1875 6.375C9.37292 6.375 9.55418 6.32002 9.70835 6.217C9.86252 6.11399 9.98269 5.96757 10.0536 5.79627C10.1246 5.62496 10.1432 5.43646 10.107 5.2546C10.0708 5.07275 9.98153 4.9057 9.85042 4.77459C9.71931 4.64348 9.55226 4.55419 9.3704 4.51801C9.18854 4.48184 9.00004 4.50041 8.82874 4.57136C8.65743 4.64232 8.51101 4.76248 8.408 4.91665C8.30499 5.07082 8.25 5.25208 8.25 5.4375C8.25 5.68614 8.34878 5.9246 8.52459 6.10041C8.70041 6.27623 8.93886 6.375 9.1875 6.375ZM19.125 9.5625C19.125 11.4538 18.5642 13.3026 17.5134 14.8751C16.4627 16.4477 14.9692 17.6733 13.2219 18.3971C11.4746 19.1209 9.5519 19.3102 7.69695 18.9413C5.84201 18.5723 4.13814 17.6615 2.8008 16.3242C1.46346 14.9869 0.552716 13.283 0.183745 11.4281C-0.185226 9.57311 0.00414312 7.65041 0.727906 5.90309C1.45167 4.15577 2.67732 2.66231 4.24986 1.61157C5.82241 0.560831 7.67122 0 9.5625 0C12.0977 0.00297736 14.5283 1.01141 16.3209 2.80408C18.1136 4.59675 19.122 7.02728 19.125 9.5625ZM18 9.5625C18 7.89372 17.5052 6.26242 16.578 4.87488C15.6509 3.48734 14.3331 2.40588 12.7914 1.76727C11.2496 1.12865 9.55314 0.961561 7.91643 1.28712C6.27972 1.61269 4.7763 2.41628 3.59629 3.59629C2.41629 4.77629 1.61269 6.27971 1.28713 7.91643C0.961566 9.55314 1.12866 11.2496 1.76727 12.7914C2.40588 14.3331 3.48734 15.6509 4.87488 16.578C6.26242 17.5051 7.89372 18 9.5625 18C11.7995 17.9975 13.9442 17.1078 15.526 15.526C17.1078 13.9442 17.9975 11.7995 18 9.5625Z" fill="#DAC5A7"/>
</svg>
