<svg width="18" height="18" viewBox="0 0 18 18" fill="none" xmlns="http://www.w3.org/2000/svg">
<path d="M9.57645 14.4185C9.62875 14.4708 9.67024 14.5328 9.69855 14.6011C9.72686 14.6694 9.74143 14.7426 9.74143 14.8165C9.74143 14.8904 9.72686 14.9636 9.69855 15.0319C9.67024 15.1002 9.62875 15.1622 9.57645 15.2145L8.64364 16.1463C7.69408 17.0959 6.4062 17.6294 5.06333 17.6294C3.72045 17.6294 2.43257 17.0959 1.48301 16.1463C0.533456 15.1968 1.00052e-08 13.9089 0 12.566C-1.00052e-08 11.2232 0.533456 9.93528 1.48301 8.98572L3.74333 6.72447C4.65631 5.81045 5.88419 5.28005 7.17551 5.24188C8.46683 5.20371 9.72389 5.66066 10.6893 6.51915C10.7447 6.5684 10.7898 6.62808 10.8222 6.69477C10.8545 6.76147 10.8734 6.83389 10.8777 6.90788C10.8821 6.98188 10.8718 7.05601 10.8475 7.12604C10.8232 7.19607 10.7854 7.26063 10.7361 7.31603C10.6869 7.37143 10.6272 7.41659 10.5605 7.44893C10.4938 7.48127 10.4214 7.50015 10.3474 7.50451C10.2734 7.50886 10.1993 7.49859 10.1293 7.4743C10.0592 7.45 9.99467 7.41215 9.93926 7.3629C9.18847 6.69597 8.21123 6.3411 7.20743 6.3709C6.20364 6.4007 5.24917 6.81292 4.53926 7.52322L2.27801 9.78072C1.5393 10.5194 1.1243 11.5213 1.1243 12.566C1.1243 13.6107 1.5393 14.6126 2.27801 15.3513C3.01672 16.0901 4.01863 16.5051 5.06333 16.5051C6.10802 16.5051 7.10993 16.0901 7.84864 15.3513L8.78051 14.4185C8.83276 14.3662 8.89479 14.3247 8.96308 14.2964C9.03137 14.2681 9.10456 14.2536 9.17848 14.2536C9.2524 14.2536 9.3256 14.2681 9.39389 14.2964C9.46217 14.3247 9.52421 14.3662 9.57645 14.4185ZM16.1455 1.48103C15.1953 0.532646 13.9077 0 12.5652 0C11.2227 0 9.93507 0.532646 8.98489 1.48103L8.05208 2.4129C7.94653 2.51845 7.88723 2.66161 7.88723 2.81087C7.88723 2.96014 7.94653 3.10329 8.05208 3.20884C8.15763 3.31439 8.30078 3.37369 8.45005 3.37369C8.59931 3.37369 8.74247 3.31439 8.84801 3.20884L9.77989 2.27134C10.5186 1.53263 11.5205 1.11763 12.5652 1.11763C13.6099 1.11763 14.6118 1.53263 15.3505 2.27134C16.0892 3.01005 16.5042 4.01196 16.5042 5.05665C16.5042 6.10135 16.0892 7.10326 15.3505 7.84197L13.0893 10.1098C12.3794 10.8201 11.4249 11.2323 10.4211 11.2621C9.4173 11.2919 8.44005 10.937 7.68926 10.2701C7.57738 10.1706 7.43056 10.1197 7.28112 10.1285C7.13168 10.1373 6.99185 10.2051 6.89239 10.317C6.79293 10.4289 6.742 10.5757 6.75079 10.7251C6.75958 10.8746 6.82738 11.0144 6.93926 11.1138C7.90453 11.9718 9.16119 12.4284 10.4521 12.3902C11.7429 12.3521 12.9704 11.822 13.8833 10.9085L16.1436 8.64728C16.6145 8.17723 16.988 7.619 17.2429 7.00448C17.4979 6.38997 17.6292 5.73124 17.6293 5.06595C17.6295 4.40066 17.4986 3.74186 17.2439 3.12721C16.9893 2.51257 16.6161 1.95414 16.1455 1.48384V1.48103Z" fill="#DAC5A7"/>
</svg>
