<svg width="19" height="19" viewBox="0 0 19 19" fill="none" xmlns="http://www.w3.org/2000/svg">
<path d="M13.3125 18.3464C5.97188 18.3464 0 12.3745 0 5.0339C0.00132513 3.80174 0.451158 2.61219 1.26547 1.68746C2.07979 0.762724 3.20289 0.166055 4.425 0.00890327C4.70621 -0.0240162 4.99053 0.0348823 5.23552 0.176808C5.48051 0.318735 5.67304 0.536078 5.78438 0.796403L7.66875 5.19328C7.75423 5.39222 7.78953 5.60911 7.77155 5.82489C7.75357 6.04067 7.68285 6.24873 7.56563 6.43078L6 8.81203C5.98453 8.83889 5.97561 8.86902 5.97398 8.89997C5.97235 8.93092 5.97806 8.96182 5.99063 8.99015C6.71075 10.4666 7.9059 11.6585 9.38438 12.3745C9.41308 12.3874 9.44468 12.3925 9.47597 12.3892C9.50725 12.3859 9.53711 12.3744 9.5625 12.3558L11.9156 10.7902C12.0959 10.669 12.3037 10.5953 12.52 10.5756C12.7363 10.5559 12.954 10.591 13.1531 10.6777L17.55 12.562C17.8103 12.6734 18.0277 12.8659 18.1696 13.1109C18.3115 13.3559 18.3704 13.6402 18.3375 13.9214C18.1803 15.1435 17.5837 16.2666 16.6589 17.0809C15.7342 17.8952 14.5447 18.3451 13.3125 18.3464ZM4.58438 1.12453H4.56563C3.6161 1.24934 2.74408 1.71435 2.11136 2.43327C1.47864 3.15219 1.12818 4.07621 1.125 5.0339C1.12748 8.26547 2.41232 11.364 4.69738 13.649C6.98244 15.9341 10.0809 17.2189 13.3125 17.2214C14.2702 17.2182 15.1942 16.8678 15.9131 16.235C16.6321 15.6023 17.0971 14.7303 17.2219 13.7808C17.2251 13.7417 17.216 13.7026 17.1958 13.6689C17.1756 13.6353 17.1454 13.6088 17.1094 13.5933L12.7125 11.7089C12.6834 11.6977 12.6521 11.6936 12.6212 11.6968C12.5902 11.7001 12.5605 11.7107 12.5344 11.7277L10.1906 13.2933C10.0009 13.4179 9.78238 13.492 9.55594 13.5084C9.3295 13.5248 9.10262 13.483 8.89688 13.387C7.19159 12.5569 5.81239 11.1809 4.97813 9.47765C4.8807 9.27435 4.83728 9.04937 4.85206 8.82441C4.86684 8.59945 4.93931 8.38209 5.0625 8.19328L6.61875 5.81203C6.63733 5.78664 6.64885 5.75678 6.65214 5.72549C6.65544 5.69421 6.65038 5.6626 6.6375 5.6339L4.75313 1.23703C4.73875 1.20407 4.71519 1.17594 4.68527 1.15599C4.65535 1.13605 4.62033 1.12512 4.58438 1.12453Z" fill="#DAC5A7"/>
</svg>
