<svg width="19" height="19" viewBox="0 0 19 19" fill="none" xmlns="http://www.w3.org/2000/svg">
<path d="M9.1875 4.875C8.33457 4.875 7.50079 5.12792 6.7916 5.60179C6.08242 6.07565 5.52967 6.74917 5.20327 7.53718C4.87687 8.32518 4.79147 9.19228 4.95786 10.0288C5.12426 10.8654 5.53499 11.6338 6.1381 12.2369C6.74122 12.84 7.50963 13.2507 8.34617 13.4171C9.18272 13.5835 10.0498 13.4981 10.8378 13.1717C11.6258 12.8453 12.2993 12.2926 12.7732 11.5834C13.2471 10.8742 13.5 10.0404 13.5 9.1875C13.5 8.04375 13.0456 6.94685 12.2369 6.1381C11.4281 5.32935 10.3312 4.875 9.1875 4.875ZM9.1875 12.375C8.55707 12.375 7.9408 12.1881 7.41662 11.8378C6.89244 11.4876 6.48389 10.9897 6.24263 10.4073C6.00138 9.82486 5.93826 9.18396 6.06125 8.56565C6.18424 7.94734 6.48782 7.37938 6.9336 6.9336C7.37938 6.48782 7.94734 6.18424 8.56565 6.06125C9.18396 5.93826 9.82486 6.00138 10.4073 6.24263C10.9897 6.48389 11.4876 6.89244 11.8378 7.41662C12.1881 7.9408 12.375 8.55707 12.375 9.1875C12.3725 10.0321 12.0359 10.8414 11.4387 11.4387C10.8414 12.0359 10.0321 12.3725 9.1875 12.375ZM13.3125 0H5.0625C3.71984 0 2.43217 0.533369 1.48277 1.48277C0.533369 2.43217 0 3.71984 0 5.0625V13.3125C0 14.6552 0.533369 15.9428 1.48277 16.8922C2.43217 17.8416 3.71984 18.375 5.0625 18.375H13.3125C14.6552 18.375 15.9428 17.8416 16.8922 16.8922C17.8416 15.9428 18.375 14.6552 18.375 13.3125V5.0625C18.375 3.71984 17.8416 2.43217 16.8922 1.48277C15.9428 0.533369 14.6552 0 13.3125 0ZM17.25 13.3125C17.25 14.3568 16.8352 15.3583 16.0967 16.0967C15.3583 16.8352 14.3568 17.25 13.3125 17.25H5.0625C4.01821 17.25 3.01669 16.8352 2.27827 16.0967C1.53984 15.3583 1.125 14.3568 1.125 13.3125V5.0625C1.125 4.01821 1.53984 3.01669 2.27827 2.27827C3.01669 1.53984 4.01821 1.125 5.0625 1.125H13.3125C14.3568 1.125 15.3583 1.53984 16.0967 2.27827C16.8352 3.01669 17.25 4.01821 17.25 5.0625V13.3125ZM15 4.3125C15 4.49792 14.945 4.67918 14.842 4.83335C14.739 4.98752 14.5926 5.10768 14.4213 5.17864C14.25 5.24959 14.0615 5.26816 13.8796 5.23199C13.6977 5.19581 13.5307 5.10652 13.3996 4.97541C13.2685 4.8443 13.1792 4.67725 13.143 4.4954C13.1068 4.31354 13.1254 4.12504 13.1964 3.95373C13.2673 3.78243 13.3875 3.63601 13.5417 3.533C13.6958 3.42998 13.8771 3.375 14.0625 3.375C14.3111 3.375 14.5496 3.47377 14.7254 3.64959C14.9012 3.8254 15 4.06386 15 4.3125Z" fill="#DAC5A7"/>
</svg>
