<svg width="21" height="14" viewBox="0 0 21 14" fill="none" xmlns="http://www.w3.org/2000/svg">
<path d="M12.75 2.0625C12.75 1.91332 12.8093 1.77024 12.9148 1.66475C13.0202 1.55926 13.1633 1.5 13.3125 1.5H19.3125C19.4617 1.5 19.6048 1.55926 19.7102 1.66475C19.8157 1.77024 19.875 1.91332 19.875 2.0625C19.875 2.21168 19.8157 2.35476 19.7102 2.46025C19.6048 2.56574 19.4617 2.625 19.3125 2.625H13.3125C13.1633 2.625 13.0202 2.56574 12.9148 2.46025C12.8093 2.35476 12.75 2.21168 12.75 2.0625ZM20.625 8.8125C20.625 8.96168 20.5657 9.10476 20.4602 9.21025C20.3548 9.31574 20.2117 9.375 20.0625 9.375H13.1719C13.3057 10.1108 13.6932 10.7764 14.267 11.256C14.8408 11.7356 15.5646 11.9989 16.3125 12C16.7312 12.0026 17.1462 11.921 17.5328 11.7599C17.9193 11.5989 18.2695 11.3617 18.5625 11.0625C18.6692 10.9588 18.8122 10.9009 18.9609 10.9009C19.1097 10.9009 19.2526 10.9588 19.3594 11.0625C19.413 11.1141 19.4556 11.176 19.4847 11.2444C19.5138 11.3129 19.5288 11.3865 19.5288 11.4609C19.5288 11.5353 19.5138 11.609 19.4847 11.6774C19.4556 11.7459 19.413 11.8078 19.3594 11.8594C18.6533 12.5643 17.7245 13.0026 16.7315 13.0996C15.7384 13.1965 14.7425 12.9461 13.9133 12.391C13.0842 11.8359 12.4732 11.0105 12.1845 10.0554C11.8958 9.10026 11.9472 8.0746 12.3299 7.15315C12.7127 6.2317 13.4031 5.47149 14.2836 5.00205C15.164 4.53262 16.18 4.38301 17.1584 4.57873C18.1368 4.77445 19.0171 5.30338 19.6492 6.07539C20.2813 6.8474 20.6262 7.81472 20.625 8.8125ZM19.4531 8.25C19.3248 7.51011 18.9394 6.83927 18.3648 6.35577C17.7903 5.87226 17.0634 5.60714 16.3125 5.60714C15.5616 5.60714 14.8347 5.87226 14.2602 6.35577C13.6856 6.83927 13.3002 7.51011 13.1719 8.25H19.4531ZM10.5 9.375C10.5 10.3696 10.1049 11.3234 9.40165 12.0267C8.69839 12.7299 7.74456 13.125 6.75 13.125H0.5625C0.413316 13.125 0.270242 13.0657 0.164752 12.9602C0.0592631 12.8548 0 12.7117 0 12.5625V0.5625C0 0.413316 0.0592631 0.270242 0.164752 0.164752C0.270242 0.0592632 0.413316 3.31068e-08 0.5625 3.31068e-08H5.625C6.29992 -9.44787e-05 6.95937 0.202169 7.51818 0.580666C8.07698 0.959163 8.50947 1.49651 8.75978 2.1233C9.01009 2.75009 9.06673 3.43753 8.92238 4.09683C8.77803 4.75614 8.43932 5.35702 7.95 5.82187C8.69331 6.07294 9.33916 6.55081 9.7966 7.18821C10.2541 7.82561 10.5001 8.59044 10.5 9.375ZM1.125 5.625H5.625C6.22174 5.625 6.79403 5.38795 7.21599 4.96599C7.63795 4.54403 7.875 3.97174 7.875 3.375C7.875 2.77826 7.63795 2.20597 7.21599 1.78401C6.79403 1.36205 6.22174 1.125 5.625 1.125H1.125V5.625ZM9.375 9.375C9.37253 8.67957 9.09517 8.01332 8.60342 7.52157C8.11168 7.02983 7.44543 6.75247 6.75 6.75H1.125V12H6.75C7.44543 11.9975 8.11168 11.7202 8.60342 11.2284C9.09517 10.7367 9.37253 10.0704 9.375 9.375Z" fill="#DAC5A7"/>
</svg>
