<svg width="20" height="20" viewBox="0 0 20 20" fill="none" xmlns="http://www.w3.org/2000/svg">
<path d="M19.125 9.5625C19.125 7.67122 18.5642 5.82241 17.5134 4.24986C16.4627 2.67732 14.9692 1.45167 13.2219 0.727906C11.4746 0.00414312 9.5519 -0.185226 7.69695 0.183745C5.84201 0.552716 4.13814 1.46346 2.8008 2.8008C1.46346 4.13814 0.552716 5.84201 0.183745 7.69695C-0.185226 9.5519 0.00414312 11.4746 0.727906 13.2219C1.45167 14.9692 2.67732 16.4627 4.24986 17.5134C5.82241 18.5642 7.67122 19.125 9.5625 19.125C12.0979 19.1225 14.5287 18.1143 16.3215 16.3215C18.1143 14.5287 19.1225 12.0979 19.125 9.5625ZM10.125 17.9813V11.625H12.5625C12.7117 11.625 12.8548 11.5657 12.9603 11.4603C13.0657 11.3548 13.125 11.2117 13.125 11.0625C13.125 10.9133 13.0657 10.7702 12.9603 10.6648C12.8548 10.5593 12.7117 10.5 12.5625 10.5H10.125V8.0625C10.1275 7.61571 10.306 7.18792 10.622 6.87198C10.9379 6.55605 11.3657 6.37747 11.8125 6.375H13.3125C13.4617 6.375 13.6048 6.31574 13.7103 6.21025C13.8157 6.10476 13.875 5.96169 13.875 5.8125C13.875 5.66332 13.8157 5.52025 13.7103 5.41476C13.6048 5.30927 13.4617 5.25 13.3125 5.25H11.8125C11.0673 5.25248 10.3534 5.54959 9.8265 6.0765C9.29959 6.60341 9.00248 7.31734 9 8.0625V10.5H6.5625C6.41332 10.5 6.27025 10.5593 6.16476 10.6648C6.05927 10.7702 6 10.9133 6 11.0625C6 11.2117 6.05927 11.3548 6.16476 11.4603C6.27025 11.5657 6.41332 11.625 6.5625 11.625H9V17.9813C6.81584 17.8353 4.77388 16.8462 3.30535 15.2229C1.83682 13.5995 1.05669 11.4689 1.1297 9.28112C1.20271 7.0933 2.12314 5.01949 3.69663 3.49764C5.27011 1.97578 7.37347 1.12503 9.5625 1.12503C11.7515 1.12503 13.8549 1.97578 15.4284 3.49764C17.0019 5.01949 17.9223 7.0933 17.9953 9.28112C18.0683 11.4689 17.2882 13.5995 15.8197 15.2229C14.3511 16.8462 12.3092 17.8353 10.125 17.9813Z" fill="#DAC5A7"/>
</svg>
