<svg width="20" height="20" viewBox="0 0 20 20" fill="none" xmlns="http://www.w3.org/2000/svg">
<path d="M19.125 9.62816V9.56253C19.1259 8.14118 18.809 6.73762 18.1974 5.45455C17.5859 4.17148 16.6952 3.04136 15.5906 2.14691L15.5438 2.10003L15.4969 2.06253C13.8093 0.72301 11.7171 -0.00414356 9.5625 3.12299e-05C8.13021 -0.00366176 6.71604 0.320218 5.42813 0.946906L5.31563 0.993781C4.00928 1.64526 2.86852 2.58581 1.97997 3.74401C1.09141 4.90222 0.478412 6.24765 0.187503 7.67816V7.69691C0.0623128 8.31088 -0.000506399 8.93593 3.07406e-06 9.56253C0.000364811 11.048 0.347127 12.5129 1.01274 13.8409C1.67836 15.1688 2.64449 16.3233 3.83438 17.2125L3.92813 17.2875H3.94688C5.57695 18.4792 7.54328 19.1226 9.5625 19.125C10.6453 19.1283 11.7205 18.9443 12.7406 18.5813L12.7969 18.5625C14.6343 17.898 16.2249 16.6881 17.3558 15.0947C18.4867 13.5014 19.104 11.6007 19.125 9.64691V9.62816ZM17.9813 9.02816C17.6813 9.00941 17.3719 9.00003 17.0625 9.00003C15.6294 8.99833 14.203 9.19713 12.825 9.59066C12.4779 8.53849 12.0256 7.52399 11.475 6.56253L11.4281 6.49691C12.8618 5.6522 14.1528 4.58588 15.2531 3.33753C16.8668 4.80832 17.8451 6.84905 17.9813 9.02816ZM14.3719 2.63441C13.3526 3.79167 12.1527 4.77628 10.8188 5.55003C9.74022 3.99642 8.39052 2.6499 6.83438 1.57503C8.08601 1.14945 9.42007 1.0236 10.7292 1.20759C12.0384 1.39159 13.286 1.8803 14.3719 2.63441ZM5.59688 2.11878C7.25664 3.14201 8.69178 4.49105 9.81563 6.08441C7.86327 7.01777 5.72649 7.5015 3.5625 7.50003C2.84709 7.49859 2.13272 7.44533 1.425 7.34066C1.72909 6.23246 2.25585 5.19787 2.97313 4.30005C3.69042 3.40224 4.58317 2.66004 5.59688 2.11878ZM1.125 9.56253C1.12634 9.18944 1.15139 8.81682 1.2 8.44691C1.98225 8.5625 2.77176 8.62202 3.5625 8.62503C5.94527 8.62981 8.29696 8.08439 10.4344 7.03128L10.5 7.13441C11.0153 8.02244 11.4364 8.96192 11.7563 9.93753C10.9079 10.2406 10.0889 10.6203 9.30938 11.0719C7.20911 12.2752 5.42053 13.9546 4.0875 15.975C3.15916 15.1842 2.41351 14.2012 1.90204 13.0941C1.39057 11.987 1.12546 10.7821 1.125 9.56253ZM4.9875 16.65C6.68868 14.0717 9.16349 12.0991 12.0563 11.0157C12.3264 12.1266 12.4617 13.2661 12.4594 14.4094C12.4635 15.4852 12.3439 16.5578 12.1031 17.6063C10.9199 17.9813 9.66842 18.09 8.43827 17.9247C7.20811 17.7594 6.02973 17.3241 4.9875 16.65ZM13.3594 17.1C13.5091 16.211 13.5844 15.311 13.5844 14.4094C13.5856 13.149 13.4345 11.893 13.1344 10.6688C14.4129 10.3098 15.7345 10.1269 17.0625 10.125C17.3719 10.125 17.6719 10.1344 17.9813 10.1532C17.8773 11.6119 17.3969 13.0188 16.5868 14.2363C15.7767 15.4539 14.6647 16.4406 13.3594 17.1Z" fill="#DAC5A7"/>
</svg>
