<svg width="17" height="20" viewBox="0 0 17 20" fill="none" xmlns="http://www.w3.org/2000/svg">
<path d="M16.125 8.06058C16.125 10.1278 15.4031 12.0159 14.0925 13.379C12.8738 14.6465 11.2228 15.3731 9.5625 15.3731C7.74188 15.3731 6.60469 14.7103 5.94094 14.0943L4.86 18.6881C4.83122 18.8117 4.76146 18.922 4.66206 19.001C4.56266 19.08 4.43946 19.123 4.3125 19.1231C4.26925 19.1231 4.22614 19.1181 4.18406 19.1081C4.03888 19.074 3.91317 18.9836 3.83459 18.8569C3.75601 18.7301 3.73098 18.5773 3.765 18.4321L6.765 5.68214C6.7805 5.60885 6.81048 5.53939 6.85318 5.47785C6.89589 5.4163 6.95046 5.3639 7.01369 5.32373C7.07692 5.28355 7.14753 5.25642 7.22139 5.24391C7.29525 5.2314 7.37087 5.23376 7.4438 5.25087C7.51673 5.26798 7.58551 5.29949 7.64611 5.34354C7.7067 5.38759 7.75788 5.4433 7.79665 5.5074C7.83542 5.5715 7.86099 5.6427 7.87187 5.71682C7.88275 5.79094 7.87871 5.86648 7.86 5.93902L6.25781 12.7481C6.52031 13.154 7.42594 14.2481 9.5625 14.2481C12.2353 14.2481 15 11.9334 15 8.06058C14.9997 6.99666 14.7546 5.94708 14.2838 4.99299C13.813 4.03891 13.1291 3.20589 12.2849 2.55834C11.4408 1.9108 10.459 1.46609 9.41551 1.25859C8.37202 1.0511 7.29479 1.08638 6.26712 1.36172C5.23944 1.63706 4.28886 2.14506 3.48889 2.84646C2.68891 3.54786 2.06097 4.42385 1.65363 5.4067C1.24628 6.38955 1.07045 7.45292 1.13972 8.51458C1.20899 9.57624 1.52152 10.6077 2.05313 11.5293C2.09167 11.5934 2.11707 11.6644 2.12785 11.7384C2.13862 11.8123 2.13455 11.8877 2.11588 11.96C2.0972 12.0324 2.06429 12.1003 2.01908 12.1598C1.97386 12.2193 1.91724 12.2692 1.85252 12.3066C1.78781 12.344 1.71629 12.3681 1.64216 12.3775C1.56802 12.3869 1.49275 12.3815 1.42074 12.3615C1.34873 12.3415 1.28143 12.3073 1.22277 12.261C1.1641 12.2147 1.11525 12.1572 1.07906 12.0918C0.461101 11.0208 0.0977644 9.822 0.0171526 8.58812C-0.0634592 7.35423 0.140814 6.11834 0.614175 4.97602C1.08754 3.8337 1.8173 2.81557 2.74703 2.00035C3.67675 1.18514 4.78153 0.594696 5.97592 0.274685C7.1703 -0.0453264 8.42229 -0.0863294 9.63505 0.154847C10.8478 0.396023 11.9889 0.912916 12.9699 1.66555C13.951 2.41818 14.7458 3.38639 15.2929 4.49529C15.84 5.60419 16.1247 6.82407 16.125 8.06058Z" fill="#DAC5A7"/>
</svg>
