<svg width="20" height="20" viewBox="0 0 20 20" fill="none" xmlns="http://www.w3.org/2000/svg">
<path d="M18.5625 5.25C17.3198 5.24851 16.1283 4.75417 15.2496 3.87542C14.3708 2.99666 13.8765 1.80525 13.875 0.5625C13.875 0.413316 13.8157 0.270242 13.7102 0.164752C13.6048 0.0592632 13.4617 0 13.3125 0H9.5625C9.41332 0 9.27024 0.0592632 9.16475 0.164752C9.05926 0.270242 9 0.413316 9 0.5625V12.9375C8.99977 13.3065 8.90053 13.6688 8.71263 13.9864C8.52473 14.304 8.25505 14.5654 7.93171 14.7433C7.60838 14.9212 7.24324 15.0091 6.87437 14.9978C6.5055 14.9865 6.14642 14.8764 5.83458 14.6791C5.52273 14.4817 5.26955 14.2043 5.10144 13.8758C4.93332 13.5473 4.85643 13.1797 4.87879 12.8113C4.90114 12.4429 5.02193 12.0873 5.22854 11.7815C5.43515 11.4757 5.72002 11.231 6.05344 11.0728C6.14962 11.0272 6.2309 10.9553 6.28782 10.8653C6.34474 10.7754 6.37497 10.6711 6.375 10.5647V6.5625C6.37492 6.48075 6.35701 6.39999 6.32254 6.32586C6.28806 6.25173 6.23784 6.18601 6.17537 6.13327C6.11291 6.08053 6.03969 6.04204 5.96083 6.02048C5.88197 5.99892 5.79936 5.99481 5.71875 6.00844C2.45625 6.58875 0 9.56719 0 12.9375C0 14.7774 0.730913 16.542 2.03195 17.8431C3.33298 19.1441 5.09756 19.875 6.9375 19.875C8.77744 19.875 10.542 19.1441 11.8431 17.8431C13.1441 16.542 13.875 14.7774 13.875 12.9375V8.89969C15.3053 9.70661 16.9203 10.1288 18.5625 10.125C18.7117 10.125 18.8548 10.0657 18.9602 9.96025C19.0657 9.85476 19.125 9.71168 19.125 9.5625V5.8125C19.125 5.66332 19.0657 5.52024 18.9602 5.41475C18.8548 5.30926 18.7117 5.25 18.5625 5.25ZM18 8.98125C16.4285 8.88089 14.9173 8.33848 13.6406 7.41656C13.5565 7.35612 13.4573 7.3201 13.3539 7.31247C13.2506 7.30484 13.1472 7.32589 13.0551 7.37331C12.9629 7.42073 12.8857 7.49267 12.8319 7.58119C12.778 7.66972 12.7497 7.77139 12.75 7.875V12.9375C12.75 14.4791 12.1376 15.9575 11.0476 17.0476C9.9575 18.1376 8.47907 18.75 6.9375 18.75C5.39593 18.75 3.9175 18.1376 2.82744 17.0476C1.73739 15.9575 1.125 14.4791 1.125 12.9375C1.125 10.3387 2.85656 8.0175 5.25 7.27688V10.2328C4.77927 10.5266 4.39338 10.9381 4.13048 11.4267C3.86759 11.9154 3.7368 12.4642 3.75105 13.0189C3.76531 13.5735 3.92411 14.1149 4.21175 14.5894C4.49939 15.0639 4.90591 15.455 5.39111 15.7242C5.8763 15.9934 6.42336 16.1313 6.97818 16.1242C7.533 16.1171 8.07636 15.9653 8.55453 15.6839C9.03269 15.4024 9.4291 15.0009 9.70454 14.5193C9.97998 14.0376 10.1249 13.4924 10.125 12.9375V1.125H12.7772C12.9091 2.46537 13.5017 3.71852 14.4541 4.67089C15.4065 5.62325 16.6596 6.21589 18 6.34781V8.98125Z" fill="#DAC5A7"/>
</svg>
