<svg width="21" height="18" viewBox="0 0 21 18" fill="none" xmlns="http://www.w3.org/2000/svg">
<path d="M20.068 2.59692C20.0257 2.49484 19.9542 2.4075 19.8625 2.34581C19.7708 2.28412 19.6629 2.25081 19.5524 2.25004H16.5899C16.2237 1.5775 15.6851 1.01459 15.0293 0.619157C14.3736 0.223724 13.6243 0.0100319 12.8586 4.1165e-05C11.7082 -0.00496045 10.6026 0.445997 9.78381 1.25422C8.96505 2.06244 8.4998 3.16211 8.48989 4.31254V5.12817C4.51489 4.18129 1.23364 0.946916 1.19614 0.918791C1.12387 0.847443 1.03362 0.796993 0.934989 0.772796C0.836355 0.748599 0.73301 0.751558 0.635921 0.781357C0.538832 0.811157 0.451622 0.866686 0.383547 0.942051C0.315471 1.01742 0.26907 1.10981 0.249267 1.20942C-0.566358 5.67192 0.774267 8.65317 2.03989 10.3688C2.71114 11.2874 3.53572 12.0834 4.47739 12.7219C3.02427 14.4844 0.633642 15.4032 0.605517 15.4125C0.525643 15.442 0.453635 15.4894 0.395096 15.5512C0.336558 15.613 0.29307 15.6874 0.268017 15.7688C0.241414 15.8482 0.233496 15.9326 0.244879 16.0155C0.256262 16.0985 0.286638 16.1777 0.333642 16.2469C0.427392 16.3875 1.34614 17.625 4.55239 17.625C11.0868 17.625 16.5524 12.5719 17.0774 6.08442L19.9461 3.20629C20.0275 3.1301 20.0829 3.0304 20.1048 2.92114C20.1266 2.81188 20.1138 2.69852 20.068 2.59692ZM16.1305 5.43754C16.033 5.53483 15.976 5.6655 15.9711 5.80317C15.5868 11.8032 10.5711 16.5 4.55239 16.5C3.24927 16.5 2.41489 16.275 1.91802 16.05C2.97739 15.5157 4.71177 14.4657 5.77114 12.8719C5.81335 12.8058 5.84175 12.7319 5.85464 12.6546C5.86752 12.5772 5.86464 12.4981 5.84614 12.4219C5.82616 12.344 5.78994 12.2711 5.73986 12.2081C5.68978 12.1451 5.62696 12.0934 5.55552 12.0563C5.53677 12.0563 4.13052 11.325 2.91177 9.65629C1.45864 7.66879 0.886767 5.24067 1.20552 2.43754C2.57427 3.60004 5.52739 5.79379 8.95864 6.36567C9.0394 6.38101 9.12256 6.37815 9.20208 6.35731C9.2816 6.33647 9.35547 6.29817 9.41833 6.24519C9.48118 6.19221 9.53144 6.12589 9.56544 6.05105C9.59944 5.97621 9.61633 5.89473 9.61489 5.81254V4.31254C9.62232 3.46296 9.96567 2.65085 10.5699 2.0536C11.1742 1.45636 11.9903 1.12253 12.8399 1.12504C13.4538 1.1339 14.0522 1.31884 14.5641 1.65787C15.076 1.99689 15.4797 2.47576 15.7274 3.03754C15.7702 3.1386 15.842 3.22465 15.9338 3.28475C16.0257 3.34485 16.1333 3.37628 16.243 3.37504H18.193L16.1305 5.43754Z" fill="#DAC5A7"/>
</svg>
