<svg width="18" height="20" viewBox="0 0 18 20" fill="none" xmlns="http://www.w3.org/2000/svg">
<path d="M16.3125 0H1.3125C0.964403 0 0.630564 0.138281 0.384422 0.384422C0.138281 0.630564 0 0.964403 0 1.3125V14.8125C0 15.1606 0.138281 15.4944 0.384422 15.7406C0.630564 15.9867 0.964403 16.125 1.3125 16.125H3V19.3125C3 19.4194 3.03047 19.5241 3.08783 19.6143C3.14519 19.7045 3.22706 19.7765 3.32386 19.8218C3.42066 19.8672 3.52838 19.884 3.63441 19.8704C3.74043 19.8567 3.84036 19.8131 3.9225 19.7447L8.21438 16.1681C8.24811 16.1402 8.29057 16.1249 8.33438 16.125H12.2906C12.5989 16.1257 12.8976 16.0178 13.1344 15.8203L17.1562 12.4688C17.3035 12.3452 17.4218 12.1908 17.5028 12.0165C17.5838 11.8422 17.6255 11.6522 17.625 11.46V1.3125C17.625 0.964403 17.4867 0.630564 17.2406 0.384422C16.9944 0.138281 16.6606 0 16.3125 0ZM16.5 11.4609C16.5 11.4885 16.494 11.5157 16.4824 11.5407C16.4707 11.5656 16.4537 11.5877 16.4325 11.6053L12.4106 14.9569C12.3769 14.9848 12.3344 15.0001 12.2906 15H8.33438C8.02607 14.9993 7.72736 15.1072 7.49063 15.3047L4.125 18.1116V15.5625C4.125 15.4133 4.06574 15.2702 3.96025 15.1648C3.85476 15.0593 3.71168 15 3.5625 15H1.3125C1.26277 15 1.21508 14.9802 1.17992 14.9451C1.14475 14.9099 1.125 14.8622 1.125 14.8125V1.3125C1.125 1.26277 1.14475 1.21508 1.17992 1.17992C1.21508 1.14475 1.26277 1.125 1.3125 1.125H16.3125C16.3622 1.125 16.4099 1.14475 16.4451 1.17992C16.4802 1.21508 16.5 1.26277 16.5 1.3125V11.4609ZM13.125 5.0625V9.5625C13.125 9.71168 13.0657 9.85476 12.9602 9.96025C12.8548 10.0657 12.7117 10.125 12.5625 10.125C12.4133 10.125 12.2702 10.0657 12.1648 9.96025C12.0593 9.85476 12 9.71168 12 9.5625V5.0625C12 4.91332 12.0593 4.77024 12.1648 4.66475C12.2702 4.55926 12.4133 4.5 12.5625 4.5C12.7117 4.5 12.8548 4.55926 12.9602 4.66475C13.0657 4.77024 13.125 4.91332 13.125 5.0625ZM8.625 5.0625V9.5625C8.625 9.71168 8.56574 9.85476 8.46025 9.96025C8.35476 10.0657 8.21168 10.125 8.0625 10.125C7.91332 10.125 7.77024 10.0657 7.66475 9.96025C7.55926 9.85476 7.5 9.71168 7.5 9.5625V5.0625C7.5 4.91332 7.55926 4.77024 7.66475 4.66475C7.77024 4.55926 7.91332 4.5 8.0625 4.5C8.21168 4.5 8.35476 4.55926 8.46025 4.66475C8.56574 4.77024 8.625 4.91332 8.625 5.0625Z" fill="#DAC5A7"/>
</svg>
