<svg width="21" height="17" viewBox="0 0 21 17" fill="none" xmlns="http://www.w3.org/2000/svg">
<path d="M13.6247 7.59377L9.12469 4.59377C9.03992 4.53721 8.94139 4.50475 8.8396 4.49984C8.73782 4.49493 8.63662 4.51776 8.5468 4.56589C8.45699 4.61402 8.38193 4.68565 8.32966 4.77312C8.27738 4.86059 8.24985 4.96062 8.25 5.06252V11.0625C8.24985 11.1644 8.27738 11.2644 8.32966 11.3519C8.38193 11.4394 8.45699 11.511 8.5468 11.5591C8.63662 11.6073 8.73782 11.6301 8.8396 11.6252C8.94139 11.6203 9.03992 11.5878 9.12469 11.5313L13.6247 8.53127C13.702 8.47996 13.7655 8.4103 13.8094 8.32851C13.8533 8.24673 13.8763 8.15534 13.8763 8.06252C13.8763 7.9697 13.8533 7.87831 13.8094 7.79653C13.7655 7.71474 13.702 7.64508 13.6247 7.59377ZM9.375 10.0116V6.11346L12.2981 8.06252L9.375 10.0116ZM20.1 2.62502C20.0186 2.3088 19.8633 2.01643 19.6469 1.77195C19.4304 1.52748 19.159 1.33788 18.855 1.21877C15.6562 -0.0196688 10.5253 1.86938e-05 10.3125 1.86938e-05C10.0997 1.86938e-05 4.96875 -0.0196688 1.76625 1.21877C1.46293 1.33837 1.19228 1.52818 0.976517 1.77263C0.760752 2.01708 0.606015 2.30919 0.525 2.62502C0.285938 3.55221 0 5.25002 0 8.06252C0 10.875 0.285938 12.5728 0.525 13.5C0.606392 13.8162 0.761697 14.1086 0.978141 14.3531C1.19458 14.5976 1.46598 14.7872 1.77 14.9063C4.96875 16.1447 10.0988 16.125 10.3125 16.125H10.3791C11.0269 16.125 15.8166 16.0838 18.8587 14.9063C19.1628 14.7872 19.4342 14.5976 19.6506 14.3531C19.8671 14.1086 20.0224 13.8162 20.1038 13.5C20.3428 12.5747 20.6287 10.8816 20.6287 8.06252C20.6287 5.24346 20.3438 3.55221 20.1 2.62502ZM19.0106 13.2188C18.9745 13.3629 18.9047 13.4963 18.8069 13.6081C18.7091 13.72 18.5861 13.8069 18.4481 13.8619C15.4481 15.0178 10.3669 15 10.3125 15C10.2581 15 5.18344 15.0188 2.17969 13.8591C2.04168 13.8041 1.91871 13.7171 1.82091 13.6053C1.72312 13.4935 1.65329 13.3601 1.61719 13.216C1.39125 12.3544 1.125 10.7606 1.125 8.06252C1.125 5.36439 1.39125 3.77064 1.61438 2.90627C1.65048 2.76217 1.7203 2.62872 1.8181 2.5169C1.9159 2.40509 2.03887 2.31811 2.17688 2.26314C5.06813 1.14939 9.89344 1.12502 10.29 1.12502H10.3125C10.3631 1.12502 15.4416 1.10627 18.4453 2.26596C18.5833 2.32092 18.7063 2.4079 18.8041 2.51971C18.9019 2.63153 18.9717 2.76498 19.0078 2.90908C19.2309 3.77064 19.4972 5.36439 19.4972 8.06533C19.4972 10.7663 19.2337 12.3544 19.0106 13.2188Z" fill="#DAC5A7"/>
</svg>
